<svg width="36" height="36" viewBox="0 0 36 36" fill="none" xmlns="http://www.w3.org/2000/svg">
<path d="M3.13043 3.13043V25.0435H9.3913V28.1739H0V0H12.5217V3.13043H3.13043ZM23.4783 6.26087H6.26087V9.3913H23.4783V6.26087ZM18.7826 12.5217H6.26087V15.6522H18.7826V12.5217ZM20.3478 18.7826H6.26087V21.913H20.3478V18.7826Z" fill="#F5F5F5"/>
<path d="M26.6311 32.2435H30.1696V36H26.6311V32.2435ZM28.9901 10.9565C35.3005 11.232 38.0488 17.9938 34.2979 23.0651C33.3189 24.3172 31.7384 25.1437 30.9599 26.1955C30.1696 27.2348 30.1696 28.487 30.1696 29.7392H26.6311C26.6311 27.648 26.6311 25.8825 27.4214 24.6303C28.1998 23.3781 29.7804 22.6393 30.7594 21.8129C33.6138 19.008 32.9061 15.0386 28.9901 14.7131C28.0516 14.7131 27.1516 15.1088 26.488 15.8133C25.8244 16.5178 25.4516 17.4733 25.4516 18.4696H21.9131C21.9131 16.477 22.6587 14.566 23.9859 13.1571C25.3131 11.7481 27.1132 10.9565 28.9901 10.9565Z" fill="#F5F5F5"/>
</svg>
